<svg xmlns="http://www.w3.org/2000/svg" version="1.1" viewBox="-5.0 -10.0 110.0 135.0">
 <path d="m8.3281 35.07v29.871c0.007813 0.34375 0.19531 0.66406 0.49219 0.83984l25.82 14.84h0.070313c0.027343 0.003906 0.050781 0.003906 0.078124 0 0.10547 0.039062 0.21875 0.058594 0.33203 0.058594 0.11328 0 0.23047-0.019532 0.33984-0.058594h0.078124 0.070313l25.812-14.84c0.29688-0.17578 0.48047-0.49609 0.48828-0.83984v-5.1211h19.309c0.55469 0 1-0.44922 1-1 0-0.55078-0.44531-1-1-1h-19.309v-3.8906h11.68c0.55078 0 1-0.44922 1-1 0-0.55078-0.44922-1-1-1h-11.68v-3.9297h14.898c0.29688 0.066406 0.60938-0.003906 0.84766-0.19141 0.23828-0.19141 0.375-0.48047 0.375-0.78516 0-0.30078-0.13672-0.58984-0.375-0.78125-0.23828-0.1875-0.55078-0.26172-0.84766-0.19141h-14.898v-4h16.871c0.55078 0 1-0.44922 1-1 0-0.55469-0.44922-1-1-1h-16.871v-4.9805c-0.003906-0.35156-0.19141-0.67187-0.48828-0.85156l-25.812-14.84c-0.30469-0.19141-0.69531-0.19141-1 0l-25.789 14.84-0.070312 0.050781h-0.050781c-0.18359 0.14844-0.30469 0.35938-0.34766 0.58984 0.003907 0.027344 0.003907 0.054687 0 0.082031 0 0-0.023437 0.058594-0.023437 0.12891zm35.16-8.9102-23.848 13.719-8.3711-4.8086 23.852-13.719zm-19.668 17.84v4.2695l-3.2109-1.8516v-4.8477l24.84-14.281 3.1992 1.8398-24.34 14c-0.30469 0.18359-0.49219 0.51562-0.48828 0.87109zm2.9414 0 23.848-13.75 8.3906 4.8086-23.891 13.73zm33.238 20.371-23.898 13.719v-27.621l23.898-13.73v4.2617c-0.003906 0.042969-0.003906 0.085938 0 0.12891-0.003906 0.042969-0.003906 0.089844 0 0.13281zm-49.672 0v-27.621l8.3711 4.8203v5.4297c0.007812 0.34766 0.19141 0.66406 0.49219 0.83984l5.1602 3c0.30859 0.17969 0.6875 0.17969 1 0 0.29297-0.17969 0.47266-0.49609 0.47656-0.83984v-4.3398l8.3789 4.8281v27.602zm74.402-24.18h6c0.55078 0 1 0.44531 1 1 0 0.55078-0.44922 1-1 1h-6c-0.55469 0-1-0.44922-1-1 0-0.55469 0.44531-1 1-1zm-5.1797 13.738c-0.55469 0-1-0.44922-1-1 0.003907-0.25781 0.10547-0.50781 0.28906-0.69141 0.089844-0.089843 0.19922-0.16406 0.32031-0.20703 0.36328-0.14453 0.77734-0.0625 1.0586 0.20703 0.18359 0.18359 0.28906 0.43359 0.29297 0.69141-0.003907 0.25781-0.10938 0.50781-0.29297 0.69141-0.17188 0.1875-0.41406 0.30078-0.66797 0.30859zm-54.73 13.07 6.7109 3.8516c0.45312 0.27344 0.61328 0.85938 0.35938 1.3281-0.27734 0.46094-0.87109 0.62109-1.3398 0.35937l-6.6992-3.8516v0.003906c-0.35937-0.32031-0.44141-0.84766-0.19922-1.2578 0.24609-0.41406 0.74609-0.59375 1.1992-0.43359zm-5.6406-9 12.352 7.1016c0.45312 0.27344 0.61328 0.85938 0.35938 1.3281-0.27734 0.46094-0.87109 0.62109-1.3398 0.35937l-12.352-7.0977c-0.375-0.31641-0.46484-0.85156-0.21875-1.2734 0.25-0.42188 0.76172-0.60156 1.2188-0.42969z"/>
<text x="0.0" y="117.5" font-size="5.0" font-weight="bold" font-family="Arbeit Regular, Helvetica, Arial-Unicode, Arial, Sans-serif" fill="#000000">Created by IconInnovate</text><text x="0.0" y="122.5" font-size="5.0" font-weight="bold" font-family="Arbeit Regular, Helvetica, Arial-Unicode, Arial, Sans-serif" fill="#000000">from Noun Project</text></svg>