<svg xmlns="http://www.w3.org/2000/svg" version="1.1" viewBox="-5.0 -10.0 110.0 135.0">
 <path d="m93.242 71.621v-43.242c0-3.7305-3.0273-6.7578-6.7539-6.7578h-72.977c-3.7266 0-6.7539 3.0273-6.7539 6.7578v43.242c0 3.7305 3.0273 6.7578 6.7539 6.7578h72.977c3.7266 0 6.7539-3.0273 6.7539-6.7578zm-2.7031-28.379v-8.1055h-81.078v8.1055h10.809c0.74219 0 1.3516 0.60547 1.3516 1.3516s-0.60938 1.3516-1.3516 1.3516h-10.809v25.676c0 2.2383 1.8086 4.0547 4.0508 4.0547h72.977c2.2422 0 4.0508-1.8164 4.0508-4.0547v-25.676h-41.891c-0.74219 0-1.3516-0.60547-1.3516-1.3516s0.60938-1.3516 1.3516-1.3516zm-16.215 27.027h8.1094c0.74219 0 1.3516-0.60547 1.3516-1.3516 0-0.74609-0.60938-1.3516-1.3516-1.3516h-8.1094c-0.74219 0-1.3516 0.60547-1.3516 1.3516 0 0.74609 0.60938 1.3516 1.3516 1.3516zm-41.891-27.027h-1.3516c-1.7969 0-3.5156 0.71484-4.7852 1.9805-1.2578 1.2656-1.9727 2.9844-1.9727 4.7773s0.71484 3.5117 1.9727 4.7773c1.2695 1.2656 2.9883 1.9805 4.7852 1.9805h1.3516v8.1055h-6.7578c-0.74219 0-1.3516 0.60547-1.3516 1.3516s0.60938 1.3516 1.3516 1.3516h6.7578v1.3516c0 0.74609 0.60547 1.3516 1.3516 1.3516 0.74219 0 1.3516-0.60547 1.3516-1.3516v-1.3516h1.3516c1.7969 0 3.5117-0.71094 4.7812-1.9766 1.2578-1.2695 1.9727-2.9883 1.9727-4.7773 0-1.793-0.71484-3.5117-1.9727-4.7812-1.2695-1.2656-2.9844-1.9766-4.7812-1.9766h-1.3516v-8.1094h6.7539c0.74609 0 1.3516-0.60547 1.3516-1.3516s-0.60547-1.3516-1.3516-1.3516h-6.7539v-1.3516c0-0.74609-0.60938-1.3516-1.3516-1.3516-0.74609 0-1.3516 0.60547-1.3516 1.3516zm36.484 18.922c0-0.74609-0.60547-1.3516-1.3516-1.3516h-8.1055c-0.74609 0-1.3516 0.60547-1.3516 1.3516v6.7539c0 0.74609 0.60547 1.3516 1.3516 1.3516h8.1055c0.74609 0 1.3516-0.60547 1.3516-1.3516zm-2.7031 1.3477v4.0547h-5.4023v-4.0547zm-31.078-6.7539v8.1055h1.3516c1.0781 0 2.1055-0.42578 2.8633-1.1875 0.75781-0.75781 1.1875-1.7891 1.1875-2.8633 0-1.0781-0.42969-2.1094-1.1875-2.8672-0.75781-0.76172-1.7852-1.1875-2.8633-1.1875zm39.188 6.7539h8.1094c0.74219 0 1.3516-0.60547 1.3516-1.3477 0-0.74609-0.60938-1.3516-1.3516-1.3516h-8.1094c-0.74219 0-1.3516 0.60547-1.3516 1.3516 0 0.74219 0.60938 1.3477 1.3516 1.3477zm-41.891-17.566h-1.3516c-1.082 0-2.1094 0.42578-2.8672 1.1875-0.75391 0.76172-1.1875 1.793-1.1875 2.8672s0.43359 2.1055 1.1875 2.8672c0.75781 0.76172 1.7852 1.1875 2.8672 1.1875h1.3516zm58.105-13.512h-81.078v-4.0547c0-2.2383 1.8086-4.0547 4.0508-4.0547h72.977c2.2422 0 4.0508 1.8164 4.0508 4.0547z" fill-rule="evenodd"/>
<text x="0.0" y="117.5" font-size="5.0" font-weight="bold" font-family="Arbeit Regular, Helvetica, Arial-Unicode, Arial, Sans-serif" fill="#000000">Created by Fahmi Hidayat</text><text x="0.0" y="122.5" font-size="5.0" font-weight="bold" font-family="Arbeit Regular, Helvetica, Arial-Unicode, Arial, Sans-serif" fill="#000000">from Noun Project</text></svg>